<svg xmlns="http://www.w3.org/2000/svg" xmlns:xlink="http://www.w3.org/1999/xlink" style="isolation:isolate" width="64" height="64" viewBox="0 0 48 48"><linearGradient id="_lgradient_30" x1=".34" x2=".118" y1=".847" y2=".064" gradientTransform="matrix(27.02,0,0,41.72,19.837,2.748)" gradientUnits="userSpaceOnUse"><stop offset="2.174%" stop-opacity="1" style="stop-color:#f24f5c"/><stop offset="49.565%" stop-opacity="1" style="stop-color:#d067cf"/><stop offset="98.261%" stop-opacity="1" style="stop-color:#0073ff"/></linearGradient><path fill="url(#_lgradient_30)" d="M 22.427 6.438 L 22.267 5.108 L 22.69 4.44 C 23.279 3.506 24.205 3.525 24.755 4.482 L 25.087 5.058 L 45.407 41.842 C 46.207 43.292 45.594 44.009 44.038 43.443 L 21.247 35.158 L 21.247 35.158 C 20.469 34.877 20.066 34.017 20.347 33.238 L 20.347 33.238 C 20.629 32.46 21.489 32.057 22.267 32.338 L 22.267 32.338 L 40.657 39.028 L 22.427 6.438 Z"/><linearGradient id="_lgradient_31" x1="0" x2="1" y1=".5" y2=".5" gradientTransform="matrix(33.53,0,0,23.38,-0.273,20.868)" gradientUnits="userSpaceOnUse"><stop offset="0%" stop-opacity="1" style="stop-color:#43e97b"/><stop offset="97.826%" stop-opacity="1" style="stop-color:#38f9d7"/></linearGradient><path fill="url(#_lgradient_31)" d="M 31.757 41.248 L 31.757 41.248 C 32.585 41.248 33.257 41.92 33.257 42.748 L 33.257 42.748 C 33.257 43.576 32.585 44.248 31.757 44.248 L 31.757 44.248 L 4.727 44.248 C 1.968 44.248 1.423 42.784 3.511 40.98 L 24.527 22.829 C 25.78 21.747 27.019 22.194 27.291 23.827 L 28.237 29.498 L 28.237 29.498 C 28.375 30.315 27.824 31.09 27.007 31.228 L 27.007 31.228 C 26.191 31.366 25.415 30.815 25.277 29.998 L 25.277 29.998 L 24.717 26.628 L 7.787 41.248 L 31.757 41.248 Z"/><linearGradient id="_lgradient_32" x1=".113" x2=".96" y1=".942" y2=".068" gradientTransform="matrix(17.05,0,0,28.69,6.707,5.108)" gradientUnits="userSpaceOnUse"><stop offset="0%" stop-opacity="1" style="stop-color:#00c6ff"/><stop offset="98.696%" stop-opacity="1" style="stop-color:#0072ff"/></linearGradient><path fill="url(#_lgradient_32)" d="M 10.057 32.498 L 10.057 32.498 C 9.643 33.216 8.725 33.462 8.007 33.048 L 8.007 33.048 C 7.29 32.634 7.043 31.716 7.457 30.998 L 7.457 30.998 L 19.437 10.038 L 22.267 5.108 L 23.757 8.748 L 22.077 11.458 L 10.057 32.498 Z"/></svg>