<svg xmlns="http://www.w3.org/2000/svg" xmlns:svg="http://www.w3.org/2000/svg" xmlns:xlink="http://www.w3.org/1999/xlink" id="svg21" width="64" height="64" version="1.1" viewBox="0 0 48 48" style="isolation:isolate"><metadata id="metadata27"/><defs id="defs25"><linearGradient id="linearGradient984"><stop style="stop-color:#84f7b2;stop-opacity:1" id="stop980" offset="0"/><stop style="stop-color:#8cd9e7;stop-opacity:1" id="stop982" offset="1"/></linearGradient><linearGradient id="Reaper"><stop id="stop944" offset="0" style="stop-color:#84f7b2;stop-opacity:1"/><stop id="stop946" offset="1" style="stop-color:#8ed3f1;stop-opacity:1"/></linearGradient><linearGradient id="linearGradient950" x1="5.246" x2="44.611" y1="4.891" y2="44.308" gradientTransform="matrix(0.98325652,0,0,0.98335004,-57.534723,-22.972296)" gradientUnits="userSpaceOnUse" xlink:href="#Reaper"/><linearGradient id="linearGradient960" x1="35.671" x2="12.114" y1="12.487" y2="38.039" gradientUnits="userSpaceOnUse" xlink:href="#Reaper"/><linearGradient id="linearGradient978" x1="18.322" x2="24.519" y1="16.74" y2="26.259" gradientUnits="userSpaceOnUse" xlink:href="#linearGradient984"/></defs><linearGradient id="_lgradient_8" x1="0" x2="1" y1=".5" y2=".5" gradientTransform="matrix(26.7,0,0,29.62,6.254,15)" gradientUnits="userSpaceOnUse"><stop id="stop2" offset="0%" stop-opacity="1" style="stop-color:#00c6ff"/><stop id="stop4" offset="98.696%" stop-opacity="1" style="stop-color:#0072ff"/></linearGradient><linearGradient id="_lgradient_9" x1="0" x2=".907" y1=".5" y2=".92"><stop id="stop7" offset="0%" stop-opacity="1" style="stop-color:#00c4ff"/><stop id="stop9" offset="83.888%" stop-opacity="1" style="stop-color:#0072ff"/></linearGradient><path id="path866" d="M -12.150215,0.62736529 A 21.787086,21.789158 0 0 1 -30.577923,22.155947 21.787086,21.789158 0 0 1 -54.688415,7.2664038 a 21.787086,21.789158 0 0 1 10.992454,-26.1202568 21.787086,21.789158 0 0 1 27.500372,6.834512" transform="rotate(-133.93459)" style="fill:none;fill-opacity:.971664;fill-rule:evenodd;stroke:url(#linearGradient950);stroke-width:4.42486;stroke-linecap:round;stroke-linejoin:round;stroke-miterlimit:4;stroke-dasharray:none;stroke-opacity:1"/><linearGradient id="_lgradient_10" x1="0" x2=".907" y1=".5" y2=".92" gradientTransform="matrix(47.998,0,0,47.998,0.077,0)" gradientUnits="userSpaceOnUse"><stop id="stop14" offset="0%" stop-opacity="1" style="stop-color:#00c4ff"/><stop id="stop16" offset="83.888%" stop-opacity="1" style="stop-color:#0072ff"/></linearGradient><path id="path882" d="m 14.802649,15.319413 c 6.488779,-2.297222 12.948802,-2.490913 19.589867,3.498999 -5.183605,-4.075505 -10.82988,-3.946501 -15.456033,-1.902656 0,0 0.341383,1.314927 1.919288,2.829517 8.174133,7.846144 2.539852,16.520335 2.539852,16.520335 0,0 3.372797,-7.750288 -4.215367,-14.88134 -3.327106,-3.12668 -4.377607,-6.064855 -4.377607,-6.064855 z" style="fill:url(#linearGradient978);fill-opacity:1;stroke:none;stroke-width:.148762;stroke-linecap:butt;stroke-linejoin:miter;stroke-miterlimit:4;stroke-dasharray:none;stroke-opacity:1"/><path id="path890" d="M 23.982338,8.9938164 C 30.054514,8.9914895 38.281399,12.647249 38.256127,20.311982 38.229562,28.368996 28.852424,39.252038 23.966476,39.24664 19.476291,39.241679 9.7744978,28.867179 9.743882,20.30175 9.714894,12.191705 17.921508,8.996139 23.982338,8.9938164 Z" style="fill:none;stroke:url(#linearGradient960);stroke-width:2.16225;stroke-linecap:butt;stroke-linejoin:miter;stroke-miterlimit:4;stroke-dasharray:none;stroke-opacity:1"/></svg>