<svg xmlns="http://www.w3.org/2000/svg" xmlns:xlink="http://www.w3.org/1999/xlink" style="isolation:isolate" width="64" height="64" viewBox="0 0 48 48"><linearGradient id="_lgradient_91" x1="-.014" x2="1.016" y1=".01" y2="1.072" gradientTransform="matrix(48,0,0,48.458,0,0)" gradientUnits="userSpaceOnUse"><stop offset="0%" stop-opacity="1" style="stop-color:#f9d423"/><stop offset="51.562%" stop-opacity="1" style="stop-color:#ff4e50"/><stop offset="99.13%" stop-opacity="1" style="stop-color:#8a2387"/></linearGradient><path fill="url(#_lgradient_91)" d="M 18.81 44.008 L 18.81 44.008 C 19.875 44.3 20.507 45.415 20.22 46.497 L 20.22 46.497 C 19.933 47.579 18.835 48.221 17.77 47.93 L 17.77 47.93 C 12.67 46.538 8.16 43.47 4.95 39.213 C 1.74 34.957 0 29.745 0 24.381 C 0 17.92 2.53 11.713 7.03 7.142 C 11.53 2.57 17.64 0 24 0 C 30.36 0 36.47 2.57 40.97 7.142 C 45.47 11.713 48 17.92 48 24.381 C 48 29.725 46.27 34.916 43.09 39.163 C 39.9 43.409 35.43 46.477 30.36 47.899 L 30.36 47.899 C 29.295 48.196 28.193 47.559 27.9 46.477 L 27.9 46.477 C 27.607 45.395 28.235 44.275 29.3 43.978 L 29.3 43.978 C 33.52 42.799 37.25 40.239 39.91 36.704 C 42.56 33.159 44 28.831 44 24.381 C 44 18.997 41.89 13.826 38.14 10.017 C 34.39 6.207 29.3 4.064 24 4.064 C 18.7 4.064 13.61 6.207 9.86 10.017 C 6.11 13.826 4 18.997 4 24.381 C 4 28.851 5.45 33.199 8.13 36.745 C 10.8 40.29 14.56 42.85 18.81 44.008 Z"/><linearGradient id="_lgradient_92" x1="0" x2="1" y1=".5" y2=".5" gradientTransform="matrix(14.704,0,0,10.48,23.928,9.663)" gradientUnits="userSpaceOnUse"><stop offset="0%" stop-opacity="1" style="stop-color:#ffe031"/><stop offset="98.696%" stop-opacity="1" style="stop-color:#fc5252"/></linearGradient><path fill="url(#_lgradient_92)" d="M 27.662 9.663 L 23.928 20.143 L 38.632 17.704 C 36.454 13.58 32.442 10.55 27.662 9.663 Z"/><linearGradient id="_lgradient_93" x1="0" x2=".907" y1=".5" y2=".92" gradientTransform="matrix(11.949,0,0,13.387,28.021,19.787)" gradientUnits="userSpaceOnUse"><stop offset="0%" stop-opacity="1" style="stop-color:#f7f107"/><stop offset="83.888%" stop-opacity="1" style="stop-color:#ffbb24"/></linearGradient><path fill="url(#_lgradient_93)" d="M 39.092 19.787 L 28.021 21.839 L 37.515 33.174 C 40.048 29.253 40.704 24.312 39.093 19.787 L 39.092 19.787 Z"/><linearGradient id="_lgradient_94" x1="0" x2="1" y1=".5" y2=".5" gradientTransform="matrix(12.548,0,0,13.789,23.367,26.18)" gradientUnits="userSpaceOnUse"><stop offset="0%" stop-opacity="1" style="stop-color:#43e97b"/><stop offset="97.826%" stop-opacity="1" style="stop-color:#38f9d7"/></linearGradient><path fill="url(#_lgradient_94)" d="M 35.915 34.609 L 28.577 26.18 L 23.367 39.955 C 28.079 40.157 32.747 38.246 35.916 34.609 L 35.915 34.609 Z"/><linearGradient id="_lgradient_95" x1="0" x2=".907" y1=".5" y2=".92" gradientTransform="matrix(14.704,0,0,10.48,10.337,28.827)" gradientUnits="userSpaceOnUse"><stop offset="0%" stop-opacity="1" style="stop-color:#00c4ff"/><stop offset="83.888%" stop-opacity="1" style="stop-color:#0072ff"/></linearGradient><path fill="url(#_lgradient_95)" d="M 21.307 39.307 L 25.041 28.827 L 10.337 31.266 C 12.515 35.389 16.527 38.419 21.307 39.306 L 21.307 39.307 Z"/><linearGradient id="_lgradient_96" x1="0" x2="1.053" y1=".5" y2=".909" gradientTransform="matrix(11.949,0,0,13.387,9,15.796)" gradientUnits="userSpaceOnUse"><stop offset="0%" stop-opacity="1" style="stop-color:#5800e2"/><stop offset="100%" stop-opacity="1" style="stop-color:#ff00e6"/></linearGradient><path fill="url(#_lgradient_96)" d="M 9.877 29.183 L 20.949 27.131 L 11.455 15.796 C 8.921 19.717 8.266 24.658 9.877 29.183 L 9.877 29.183 Z"/><linearGradient id="_lgradient_97" x1="0" x2=".907" y1=".5" y2=".92" gradientTransform="matrix(12.548,0,0,13.789,13.054,9)" gradientUnits="userSpaceOnUse"><stop offset="0%" stop-opacity="1" style="stop-color:#ff416c"/><stop offset="84.348%" stop-opacity="1" style="stop-color:#ff4b2b"/></linearGradient><path fill="url(#_lgradient_97)" d="M 13.054 14.361 L 20.393 22.789 L 25.602 9.015 C 20.891 8.812 16.224 10.723 13.055 14.361 L 13.054 14.361 Z"/></svg>