<svg xmlns="http://www.w3.org/2000/svg" xmlns:xlink="http://www.w3.org/1999/xlink" style="isolation:isolate" width="64" height="64" viewBox="0 0 48 48"><linearGradient id="_lgradient_7" x1="0" x2="1" y1=".5" y2=".5" gradientTransform="matrix(14.36,0,0,22.77,0,12.615)" gradientUnits="userSpaceOnUse"><stop offset="0%" stop-opacity="1" style="stop-color:#d300dc"/><stop offset="100%" stop-opacity="1" style="stop-color:#8700ff"/></linearGradient><path fill="url(#_lgradient_7)" d="M 12.867 30.928 L 14.36 32.41 L 11.385 35.385 L 9.903 33.892 L 0 24 L 9.903 14.108 L 11.385 12.615 L 14.36 15.59 L 12.867 17.072 L 5.95 24 L 12.867 30.928 Z"/><linearGradient id="_lgradient_8" x1="-.016" x2="1.195" y1="1.109" y2="-.213" gradientTransform="matrix(14.36,0,0,14.36,12.615,0)" gradientUnits="userSpaceOnUse"><stop offset="0%" stop-opacity="1" style="stop-color:#f7f107"/><stop offset="83.888%" stop-opacity="1" style="stop-color:#ffbb24"/></linearGradient><path fill="url(#_lgradient_8)" d="M 22.518 1.493 L 24 0 L 26.975 2.975 L 25.482 4.457 L 17.072 12.867 L 15.59 14.36 L 12.615 11.385 L 14.108 9.903 L 22.518 1.493 Z"/><linearGradient id="_lgradient_9" x1="-.094" x2="1.109" y1="1.157" y2="-.063" gradientTransform="matrix(14.36,0,0,14.36,18.922,6.307)" gradientUnits="userSpaceOnUse"><stop offset="2.609%" stop-opacity="1" style="stop-color:#b3ffab"/><stop offset="98.696%" stop-opacity="1" style="stop-color:#12fff7"/></linearGradient><path fill="url(#_lgradient_9)" d="M 28.825 7.8 L 30.307 6.307 L 33.283 9.283 L 31.79 10.765 L 23.38 19.175 L 21.898 20.668 L 18.922 17.693 L 20.415 16.21 L 28.825 7.8 Z"/><linearGradient id="_lgradient_10" x1="-.267" x2="1.221" y1=".594" y2=".941" gradientTransform="matrix(21.719,0,0,14.36,26.281,13.666)" gradientUnits="userSpaceOnUse"><stop offset="0%" stop-opacity="1" style="stop-color:#f9d423"/><stop offset="51.562%" stop-opacity="1" style="stop-color:#ff4e50"/><stop offset="99.13%" stop-opacity="1" style="stop-color:#8a2387"/></linearGradient><path fill="url(#_lgradient_10)" d="M 30.739 26.534 L 29.256 28.026 L 26.281 25.051 L 27.774 23.569 L 37.666 13.666 L 46.507 22.518 L 48 24 L 45.025 26.975 L 43.543 25.482 L 37.666 19.616 L 30.739 26.534 Z"/><linearGradient id="_lgradient_11" x1="-.047" x2="1.313" y1="1.203" y2="-.287" gradientTransform="matrix(14.36,0,0,14.36,21.025,33.64)" gradientUnits="userSpaceOnUse"><stop offset="0%" stop-opacity="1" style="stop-color:#00c4ff"/><stop offset="83.888%" stop-opacity="1" style="stop-color:#0072ff"/></linearGradient><path fill="url(#_lgradient_11)" d="M 30.928 35.133 L 32.41 33.64 L 35.385 36.615 L 33.892 38.097 L 25.482 46.507 L 24 48 L 21.025 45.025 L 22.518 43.543 L 30.928 35.133 Z"/><linearGradient id="_lgradient_12" x1=".079" x2=".219" y1="-.026" y2=".946" gradientTransform="matrix(14.36,0,0,21.719,13.666,18.922)" gradientUnits="userSpaceOnUse"><stop offset="0%" stop-opacity="1" style="stop-color:#5433ff"/><stop offset="51.739%" stop-opacity="1" style="stop-color:#20bdff"/><stop offset="98.261%" stop-opacity="1" style="stop-color:#a5fecb"/></linearGradient><path fill="url(#_lgradient_12)" d="M 16.21 23.38 L 14.717 21.898 L 17.693 18.922 L 19.175 20.415 L 28.026 29.256 L 18.124 39.148 L 16.641 40.641 L 13.666 37.666 L 15.159 36.184 L 22.076 29.256 L 16.21 23.38 Z"/><linearGradient id="_lgradient_13" x1="0" x2="1" y1=".5" y2=".5" gradientTransform="matrix(9.104,0,0,9.104,33.64,26.281)" gradientUnits="userSpaceOnUse"><stop offset="0%" stop-opacity="1" style="stop-color:#f96"/><stop offset="98.261%" stop-opacity="1" style="stop-color:#ff5e62"/></linearGradient><path fill="url(#_lgradient_13)" d="M 38.286 27.774 L 39.769 26.281 L 42.744 29.256 L 41.251 30.739 L 38.097 33.892 L 36.615 35.385 L 33.64 32.41 L 35.133 30.928 L 38.286 27.774 Z"/></svg>