<svg xmlns="http://www.w3.org/2000/svg" xmlns:xlink="http://www.w3.org/1999/xlink" style="isolation:isolate" width="64" height="64" viewBox="0 0 48 48"><linearGradient id="_lgradient_18" x1="0" x2="1" y1=".5" y2=".5" gradientTransform="matrix(40,0,0,40,4,4)" gradientUnits="userSpaceOnUse"><stop offset="0%" stop-opacity="1" style="stop-color:#5433ff"/><stop offset="51.739%" stop-opacity="1" style="stop-color:#20bdff"/><stop offset="98.261%" stop-opacity="1" style="stop-color:#a5fecb"/></linearGradient><path fill="url(#_lgradient_18)" fill-rule="evenodd" d="M 23.997 4.001 C 22.216 8.366 21.142 11.221 19.159 15.456 C 20.375 16.744 21.867 18.244 24.29 19.939 C 21.685 18.867 19.908 17.791 18.58 16.674 C 16.043 21.968 12.067 29.508 4 44 C 10.341 40.34 14.756 38.084 19.336 37.223 C 19.14 36.377 19.028 35.462 19.036 34.508 L 19.043 34.305 C 19.143 30.243 21.801 27.005 24.259 27 C 26.718 26.994 29.109 31.011 29.008 35.072 C 28.989 35.836 28.903 36.571 28.752 37.253 C 33.283 38.139 37.745 40.39 44 44 C 42.767 41.73 41.666 39.684 40.615 37.735 C 38.959 36.451 37.232 34.781 33.708 32.973 C 36.13 33.603 37.864 34.328 39.215 35.14 C 28.527 15.244 27.662 12.6 23.996 4"/></svg>