<svg xmlns="http://www.w3.org/2000/svg" xmlns:svg="http://www.w3.org/2000/svg" xmlns:xlink="http://www.w3.org/1999/xlink" id="Firefox_-_Large" width="128" height="128" data-name="Firefox - Large" version="1.1" viewBox="0 0 128 128"><metadata id="metadata230"/><defs id="defs194"><radialGradient id="radial-gradient" cx="-14480.522" cy="-8329.079" r="450.875" fx="-14509.281" gradientTransform="matrix(0.762,0.034,-0.05,1.12,11560.893,10069.103)" gradientUnits="userSpaceOnUse" xlink:href="#linear-gradient-6"><stop id="stop2" offset=".045" stop-color="#ffea00"/><stop id="stop4" offset=".12" stop-color="#ffde00"/><stop id="stop6" offset=".254" stop-color="#ffbf00"/><stop id="stop8" offset=".429" stop-color="#ff8e00"/><stop id="stop10" offset=".769" stop-color="#ff272d"/><stop id="stop12" offset=".872" stop-color="#e0255a"/><stop id="stop14" offset=".953" stop-color="#cc2477"/><stop id="stop16" offset="1" stop-color="#c42482"/></radialGradient><radialGradient id="radial-gradient-2" cx="-7529.669" cy="-7921.608" r="791.229" gradientTransform="matrix(1.225,0,0,1.225,9921.963,9899.103)" gradientUnits="userSpaceOnUse"><stop id="stop19" offset="0" stop-color="#00ccda"/><stop id="stop21" offset=".22" stop-color="#0083ff"/><stop id="stop23" offset=".261" stop-color="#007af9"/><stop id="stop25" offset=".33" stop-color="#0060e8"/><stop id="stop27" offset=".333" stop-color="#005fe7"/><stop id="stop29" offset=".438" stop-color="#2639ad"/><stop id="stop31" offset=".522" stop-color="#401e84"/><stop id="stop33" offset=".566" stop-color="#4a1475"/></radialGradient><linearGradient id="linear-gradient" x1="575.669" x2="384.231" y1="731.188" y2="104.96" gradientTransform="translate(-1136.2811,-7.4755336)" gradientUnits="userSpaceOnUse"><stop id="stop36" offset="0" stop-color="#000f43" stop-opacity=".4"/><stop id="stop38" offset=".485" stop-color="#001962" stop-opacity=".173"/><stop id="stop40" offset="1" stop-color="#002079" stop-opacity="0"/></linearGradient><radialGradient id="radial-gradient-3" cx="-8260.94" cy="-6516.556" r="266.886" gradientTransform="matrix(1.219,0.123,-0.123,1.219,10296.265,9597.23)" gradientUnits="userSpaceOnUse"><stop id="stop43" offset=".003" stop-color="#ffea00"/><stop id="stop45" offset=".497" stop-color="#ff272d"/><stop id="stop47" offset="1" stop-color="#c42482"/></radialGradient><radialGradient id="radial-gradient-4" cx="-8285.087" cy="-6772.468" r="445.678" gradientTransform="matrix(1.219,0.123,-0.123,1.219,10296.265,9597.23)" gradientUnits="userSpaceOnUse"><stop id="stop50" offset=".003" stop-color="#ffe900"/><stop id="stop52" offset=".157" stop-color="#ffaf0e"/><stop id="stop54" offset=".316" stop-color="#ff7a1b"/><stop id="stop56" offset=".472" stop-color="#ff4e26"/><stop id="stop58" offset=".621" stop-color="#ff2c2e"/><stop id="stop60" offset=".762" stop-color="#ff1434"/><stop id="stop62" offset=".892" stop-color="#ff0538"/><stop id="stop64" offset="1" stop-color="#ff0039"/></radialGradient><radialGradient id="radial-gradient-5" cx="-8222.051" cy="-6359.332" r="408.958" gradientTransform="matrix(1.219,0.123,-0.123,1.219,10296.265,9597.23)" gradientUnits="userSpaceOnUse"><stop id="stop67" offset=".003" stop-color="#ff272d"/><stop id="stop69" offset=".497" stop-color="#c42482"/><stop id="stop71" offset=".986" stop-color="#620700"/></radialGradient><radialGradient id="radial-gradient-6" cx="750.189" cy="396.041" r="782.18" fx="778.167" fy="382.212" gradientUnits="userSpaceOnUse" xlink:href="#radial-gradient-5"><stop id="stop74" offset=".156" stop-color="#ffea00"/><stop id="stop76" offset=".231" stop-color="#ffde00"/><stop id="stop78" offset=".365" stop-color="#ffbf00"/><stop id="stop80" offset=".541" stop-color="#ff8e00"/><stop id="stop82" offset=".763" stop-color="#ff272d"/><stop id="stop84" offset=".796" stop-color="#f92433"/><stop id="stop86" offset=".841" stop-color="#e91c45"/><stop id="stop88" offset=".893" stop-color="#cf0e62"/><stop id="stop90" offset=".935" stop-color="#b5007f"/></radialGradient><radialGradient id="radial-gradient-7" cx="691.339" cy="3.289" r="923.615" gradientUnits="userSpaceOnUse"><stop id="stop93" offset=".279" stop-color="#ffea00"/><stop id="stop95" offset=".402" stop-color="#fd0"/><stop id="stop97" offset=".63" stop-color="#ffba00"/><stop id="stop99" offset=".856" stop-color="#ff9100"/><stop id="stop101" offset=".933" stop-color="#ff6711"/><stop id="stop103" offset=".994" stop-color="#ff4a1d"/></radialGradient><linearGradient id="linear-gradient-2" x1="-8944.65" x2="-8660.289" y1="-6677.742" y2="-6750.226" gradientTransform="matrix(1.219,0.123,-0.123,1.219,10296.265,9597.23)" gradientUnits="userSpaceOnUse"><stop id="stop106" offset="0" stop-color="#c42482" stop-opacity=".5"/><stop id="stop108" offset=".474" stop-color="#ff272d" stop-opacity=".5"/><stop id="stop110" offset=".486" stop-color="#ff2c2c" stop-opacity=".513"/><stop id="stop112" offset=".675" stop-color="#ff7a1a" stop-opacity=".72"/><stop id="stop114" offset=".829" stop-color="#ffb20d" stop-opacity=".871"/><stop id="stop116" offset=".942" stop-color="#ffd605" stop-opacity=".964"/><stop id="stop118" offset="1" stop-color="#ffe302"/></linearGradient><linearGradient id="linear-gradient-3" x1="245.347" x2="190.775" y1="-1082.012" y2="-1221.859" gradientTransform="matrix(0.995,0.1,-0.1,0.995,-401.80508,1153.0889)" gradientUnits="userSpaceOnUse"><stop id="stop121" offset="0" stop-color="#891551" stop-opacity=".6"/><stop id="stop123" offset="1" stop-color="#c42482" stop-opacity="0"/></linearGradient><linearGradient id="linear-gradient-4" x1="22.04" x2="116.148" y1="718.827" y2="825.714" gradientTransform="matrix(0.995,0.1,-0.1,0.995,305.439,-246.471)" gradientUnits="userSpaceOnUse"><stop id="stop126" offset=".005" stop-color="#891551" stop-opacity=".5"/><stop id="stop128" offset=".484" stop-color="#ff272d" stop-opacity=".5"/><stop id="stop130" offset="1" stop-color="#ff272d" stop-opacity="0"/></linearGradient><linearGradient id="linear-gradient-5" x1="200.104" x2="200.171" y1="904.616" y2="829.835" gradientTransform="matrix(0.995,0.1,-0.1,0.995,305.439,-246.471)" gradientUnits="userSpaceOnUse"><stop id="stop133" offset="0" stop-color="#c42482"/><stop id="stop135" offset=".083" stop-color="#c42482" stop-opacity=".81"/><stop id="stop137" offset=".206" stop-color="#c42482" stop-opacity=".565"/><stop id="stop139" offset=".328" stop-color="#c42482" stop-opacity=".362"/><stop id="stop141" offset=".447" stop-color="#c42482" stop-opacity=".204"/><stop id="stop143" offset=".562" stop-color="#c42482" stop-opacity=".091"/><stop id="stop145" offset=".673" stop-color="#c42482" stop-opacity=".023"/><stop id="stop147" offset=".773" stop-color="#c42482" stop-opacity="0"/></linearGradient><linearGradient id="linear-gradient-6" x1="655.531" x2="961.187" y1="38.12" y2="721.615" gradientUnits="userSpaceOnUse"><stop id="stop150" offset="0" stop-color="#fff14f"/><stop id="stop152" offset=".268" stop-color="#ffee4c"/><stop id="stop154" offset=".452" stop-color="#ffe643"/><stop id="stop156" offset=".612" stop-color="#ffd834"/><stop id="stop158" offset=".757" stop-color="#ffc41e"/><stop id="stop160" offset=".892" stop-color="#ffab02"/><stop id="stop162" offset=".902" stop-color="#ffa900"/><stop id="stop164" offset=".949" stop-color="#ffa000"/><stop id="stop166" offset="1" stop-color="#ff9100"/></linearGradient><linearGradient id="linear-gradient-7" x1="715.885" x2="571.098" y1="431.21" y2="819.96" gradientUnits="userSpaceOnUse"><stop id="stop169" offset="0" stop-color="#ff8e00"/><stop id="stop171" offset=".04" stop-color="#ff8e00" stop-opacity=".858"/><stop id="stop173" offset=".084" stop-color="#ff8e00" stop-opacity=".729"/><stop id="stop175" offset=".13" stop-color="#ff8e00" stop-opacity=".628"/><stop id="stop177" offset=".178" stop-color="#ff8e00" stop-opacity=".557"/><stop id="stop179" offset=".227" stop-color="#ff8e00" stop-opacity=".514"/><stop id="stop181" offset=".282" stop-color="#ff8e00" stop-opacity=".5"/><stop id="stop183" offset=".389" stop-color="#ff8e00" stop-opacity=".478"/><stop id="stop185" offset=".524" stop-color="#ff8e00" stop-opacity=".416"/><stop id="stop187" offset=".676" stop-color="#ff8e00" stop-opacity=".314"/><stop id="stop189" offset=".838" stop-color="#ff8e00" stop-opacity=".172"/><stop id="stop191" offset="1" stop-color="#ff8e00" stop-opacity="0"/></linearGradient><radialGradient id="radialGradient944" cx="500.343" cy="501" r="465.343" fx="500.343" fy="501" gradientTransform="matrix(0.90813618,0,0,0.94649739,74.131454,30.975367)" gradientUnits="userSpaceOnUse" xlink:href="#radial-gradient-2"/><linearGradient id="linearGradient952" x1="238.762" x2="446.785" y1="592.669" y2="592.669" gradientTransform="translate(1168.2061,169.15202)" gradientUnits="userSpaceOnUse" xlink:href="#linear-gradient-5"/><linearGradient id="linearGradient960" x1="632.517" x2="988.864" y1="414.542" y2="414.542" gradientTransform="translate(441.38104,-216.72602)" gradientUnits="userSpaceOnUse" xlink:href="#linear-gradient-6"/><linearGradient id="linearGradient968" x1="599.081" x2="968.801" y1="468.246" y2="468.246" gradientTransform="translate(718.89607,-7.9290008)" gradientUnits="userSpaceOnUse" xlink:href="#linear-gradient-7"/><radialGradient id="radialGradient976" cx="874.324" cy="351.055" r="93.441" fx="874.324" fy="351.055" gradientTransform="matrix(1,0,0,2.7557172,803.61986,-724.74848)" gradientUnits="userSpaceOnUse" xlink:href="#radial-gradient-4"/></defs><title id="title196">firefox-logo</title><g id="g225" transform="matrix(0.12996686,0,0,0.12996686,-2.9146925,-0.1790723)"><path style="fill:none;fill-opacity:1;stroke:url(#radialGradient976);stroke-width:8.84840965;stroke-miterlimit:4;stroke-dasharray:none" id="path198" d="m 1608.9049,-14.837237 c -23.947,27.884 -35.1,90.639 -10.818,154.255997 24.282,63.617 61.5,49.8 84.7,114.673 30.623,85.6 16.369,200.589 16.369,200.589 0,0 36.814,106.609 62.468,-6.633 56.783,-212.703 -152.719,-410.505997 -152.719,-462.884997 z"/><path id="_Path_" d="m 513.072,976.638 c 245.236,0 443.9,-199.739 443.9,-446.028 C 956.972,284.321 758.308,84.583 513.31,84.583 268.312,84.583 69.65,284.322 69.65,530.61 69.175,777.137 268.073,976.638 513.072,976.638 Z" data-name="&lt;Path&gt;" style="fill:none"/><path style="fill:url(#linear-gradient)" id="path201" d="m -290.60611,798.16047 a 246.888,246.888 0 0 1 -30.123,18.183 704,704 0 0 0 38.3,-62.961 c 9.46,-10.47 18.126,-20.648 25.188,-31.653 3.437,-5.407 7.313,-12.079 11.416,-19.819 24.921,-44.9 52.4,-117.563 53.179,-192.2 v -0.18 c 0.018,-1.837 0.029,-3.675 0.014,-5.515 a 257.6,257.6 0 0 0 -5.712,-55.748 c 0.2,1.431 0.376,2.861 0.556,4.291 -0.221,-1.1 -0.407,-2.212 -0.644,-3.314 0.366,2.034 0.66,4 0.976,5.983 5.094,43.217 1.466,85.372 -16.682,116.45 -0.286,0.454 -0.58,0.879 -0.869,1.323 9.41,-47.234 12.558,-99.387 2.088,-151.6 0,0 -4.187,-25.383 -35.376,-102.441 -17.952,-44.353 -49.833,-80.716 -78,-107.207 -24.69,-30.546 -47.114,-51.045 -59.475,-64.06 -25.821,-27.189 -36.643,-47.569 -41.087,-60.867004 -3.853,-1.932 -53.135,-49.807 -57.05,-51.631 -21.511,33.352 -89.162,137.675004 -56.981,235.146004 14.584,44.172 51.467,90.017 90.067,115.736 1.695,1.936 22.969,25.042 33.086,77.157 10.446,53.842 4.954,95.855 -16.546,157.983 -25.286,54.505 -90.067,108.388 -150.724,113.9 -129.676,11.781 -177.149,-65.108 -177.149,-65.108 46.336,18.525 97.568,14.65 128.724,-4.556 31.4,-19.425 50.394,-33.827 65.81,-28.148 15.2,5.653 27.3,-10.756 16.442,-27.767 a 78.5,78.5 0 0 0 -79.4,-34.573 c -31.433,5.109 -60.226,30.009 -101.412,5.894 a 85.528,85.528 0 0 1 -7.729,-5.062 c -2.715,-1.785 8.826,2.717 6.133,0.688 -8.015,-4.354 -22.2,-13.842 -25.88,-17.217 -0.613,-0.562 6.219,2.179 5.606,1.616 -38.51,-31.712 -33.7,-53.134 -32.49,-66.57 0.969,-10.749 7.964,-24.523 19.751,-30.11 5.693,3.107 9.24,5.479 9.24,5.479 0,0 -2.428,-4.961 -3.741,-7.576 0.46,-0.2 0.9,-0.147 1.358,-0.342 4.664,2.251 14.977,8.1 20.407,11.667 7.072,4.988 9.326,9.436 9.326,9.436 0,0 1.862,-1.025 0.485,-5.375 -0.5,-1.784 -2.647,-7.453 -9.652,-13.174 l 0.438,0.049 a 81.2,81.2 0 0 1 11.867,8.241 c 1.975,-7.181 5.527,-14.679 4.746,-28.092 -0.477,-9.431 -0.257,-11.873 -1.919,-15.515 -1.488,-3.128 0.834,-4.348 3.418,-1.1 a 32.826,32.826 0 0 0 -2.208,-7.4 l 0.022,-0.244 c 3.225,-11.236 68.248,-40.461 72.981,-43.877 a 67.355,67.355 0 0 0 19.132,-20.8 c 3.617,-5.763 6.337,-13.848 7,-26.112 0.355,-8.844 -3.759,-14.734 -69.507,-21.618 -17.981,-1.771 -28.531,-14.8 -34.526,-26.823 -1.094,-2.59 -2.209,-4.937 -3.325,-7.282 a 58,58 0 0 1 -2.558,-8.431 c 10.749,-30.873 28.81,-56.977 55.367,-76.7 1.447,-1.318 -5.782,0.338 -4.336,-0.98 1.687,-1.538 12.706,-5.977 14.787,-6.977 2.542,-1.2 -10.882,-6.9 -22.732,-5.512 -12.069,1.36 -14.632,2.8 -21.073,5.531 2.673,-2.661 11.173,-6.149 9.18,-6.126 -13.011,1.995 -29.179,9.558 -43,18.124 a 10.731,10.731 0 0 1 0.835,-4.348 c -6.441,2.732 -22.26,13.788 -26.865,23.142 a 44.329,44.329 0 0 0 0.266,-5.4 84.483,84.483 0 0 0 -13.195,13.818 l -0.241,0.219 c -37.358,-15.05 -70.233,-16.024 -98.053,-9.276 -6.086,-6.112 -9.059,-1.644 -22.907,-32.069 -0.941,-1.832 0.722,1.809 0,0 -2.278,-5.9 1.389,7.872 0,0 -23.284,18.372 -53.92,39.193 -68.626,53.89 -0.182,0.586 17.156,-4.9 0,0 -6.008,1.716 -5.6,5.281 -6.513,37.5 -0.22,2.443 -0.025,5.179 -0.223,7.378 -11.748,14.968 -19.74899,27.643 -22.77499,34.211 -15.193,26.18 -31.926,66.992 -48.146,131.551 a 334.364,334.364 0 0 1 25.784,-50.401 c -13.488,34.267 -26.527,88.078 -29.134,170.945 a 483.614,483.614 0 0 1 12.533,-50.66 473.038,473.038 0 0 0 34.74,201.061 c 9.32899,22.821 24.75999,57.455 51.02899,95.4 82.533,86.839 198.945,140.9 327.852,140.9 134.572,10e-4 255.415,-58.878 338.455,-152.375 z"/><path style="fill:none" id="path203" d="m 746.1,868.708 c 162.87,-18.86 234.969,-186.7 142.381,-190 -83.633,-2.673 -219.527,198.9 -142.381,190 z"/><path style="fill:none" id="path205" d="m 900.207,644.424 c 112.056,-65.214 82.839,-206.08 82.839,-206.08 0,0 -43.246,50.238 -72.625,130.32 -29.021,79.299 -77.584,115.148 -10.214,75.76 z"/><path style="fill:none" id="path207" d="m 544.474,952.062 c 156.227,49.851 290.5,-73.22 207.733,-114.32 -75.251,-37.066 -281.883,90.748 -207.733,114.32 z"/><path style="fill:none;fill-opacity:1;stroke:url(#radialGradient944);stroke-width:59.12361526;stroke-miterlimit:4;stroke-dasharray:none" id="path209" d="m 902.21452,689.73472 c 3.45091,-4.87033 8.11873,-20.46485 12.24167,-27.4357 25.04821,-40.43294 25.2253,-72.67178 25.2253,-73.4101 15.12864,-75.57418 13.75645,-106.43356 4.44987,-163.50356 -7.49304,-45.95169 -40.25041,-111.7843 -68.62785,-143.48551 -29.24199,-32.66112 -8.64001,-22.01958 -36.95387,-45.87722 -24.81665,-27.51018 -48.87862,-54.75244 -61.98303,-65.7082 -94.6968,-79.168588 -92.55724,-95.984546 -90.73369,-98.851532 -0.30787,0.336918 -0.76012,0.837302 -1.33678,1.492068 -1.12155,-4.470754 -1.91345,-8.230439 -1.91345,-8.230439 0,0 -51.76376,51.763763 -62.66139,138.036693 -7.11434,56.32352 13.96985,115.03906 44.49867,152.56688 A 346.33317,346.33317 0 0 0 718,408 v -0.0236 c 23.06666,33.12609 35.7624,74.00311 35.7624,117.97506 0,110.10606 -89.30702,199.36405 -199.47393,199.36405 a 200.20316,200.20316 0 0 1 -44.62036,-5.01201 c -51.97808,-9.90594 -81.9938,-36.12656 -96.96351,-53.92693 -8.57917,-10.20202 -12.22715,-17.63874 -12.22715,-17.63874 46.57195,16.68337 98.066,13.1934 129.38035,-4.10296 31.55682,-17.49524 50.65039,-30.46433 66.14591,-25.35062 15.27485,5.09102 27.43571,-9.68708 16.52808,-25.00643 -10.68967,-15.29756 -38.50497,-37.20634 -79.80519,-31.13637 -31.59315,4.60154 -60.53363,27.02614 -101.92921,5.30806 a 87.465319,87.465319 0 0 1 -7.76819,-4.55884 c -2.72895,-1.60831 8.87067,2.44742 6.16352,0.61935 -8.05517,-3.92133 -22.31563,-12.4669 -26.01174,-15.50552 -0.61663,-0.50583 6.2507,1.96248 5.63044,1.45302 -38.70568,-28.55997 -33.87347,-47.85242 -32.65567,-59.95334 0.97443,-9.68073 8.00431,-22.08587 19.85095,-27.11695 5.72126,2.79797 9.2866,4.93391 9.2866,4.93391 0,0 -2.44107,-4.46803 -3.76059,-6.82282 0.46224,-0.17618 0.90269,-0.13168 1.3622,-0.30787 4.6878,2.02697 15.05327,7.29144 20.51117,10.50714 7.10798,4.49255 9.37378,8.49834 9.37378,8.49834 0,0 1.87166,-0.92266 0.48676,-4.84037 -0.50583,-1.60649 -2.65994,-6.71203 -9.70071,-11.86479 l 0.44044,0.0445 a 82.50508,82.50508 0 0 1 11.92747,7.4222 c 1.98518,-6.46684 5.55598,-13.21975 4.77044,-25.29977 -0.4795,-8.49289 -0.25792,-10.69331 -1.92889,-13.97259 -1.4957,-2.81522 0.83912,-3.91588 3.43457,-0.98805 a 27.278594,27.278594 0 0 0 -2.21948,-6.66844 l 0.0227,-0.21977 c 3.24205,-10.11936 68.59607,-36.43896 73.35288,-39.51573 a 63.851055,63.851055 0 0 0 19.22979,-18.73485 c 3.63255,-5.19 6.36966,-12.47144 7.03624,-23.51618 0.2234,-4.97659 -1.30862,-8.91518 -18.61679,-12.68213 -10.38817,-2.26126 -26.45946,-4.46167 -51.24885,-6.78741 -18.07191,-1.59468 -28.67622,-13.3278 -34.7017,-24.15642 -1.09975,-2.33301 -2.22039,-4.44986 -3.34194,-6.55856 a 48.229296,48.229296 0 0 1 -2.57094,-7.59202 143.91234,143.91234 0 0 1 55.64969,-69.07556 c 1.45301,-1.18784 -5.81208,0.30423 -4.35907,-0.88271 1.69641,-1.3849 12.77113,-5.38252 14.86347,-6.28339 2.55459,-1.07705 -10.93759,-6.21165 -22.84779,-4.96388 -12.12998,1.22508 -14.70636,2.52099 -21.18047,4.98204 2.68718,-2.39657 11.23001,-5.53963 9.22757,-5.51693 -13.07715,1.7963 -29.33279,8.60822 -43.22728,16.32194 a 8.7871256,8.7871256 0 0 1 0.83913,-3.91588 c -6.47411,2.46013 -22.37376,12.41785 -27.00253,20.84171 a 35.860482,35.860482 0 0 0 0.26699,-4.86215 80.5317,80.5317 0 0 0 -13.25878,12.44146 l -0.24247,0.19797 c -37.54872,-13.55393 -70.59125,-14.43119 -98.55276,-8.35485 -6.11721,-5.50421 -15.95232,-13.82728 -29.87042,-41.22938 -0.94536,-1.65008 -1.45301,3.41005 -2.17953,1.78086 -5.40794,-12.54409 -8.67542,-33.09612 -8.13871,-47.26486 0,0 -11.18642,5.09828 -20.44487,26.39044 -1.7191,3.82779 -2.82158,5.9392 -3.92314,8.05062 -0.50675,0.61572 1.14879,-6.99264 0.88451,-6.57854 -1.60921,2.72442 -5.77211,6.53133 -7.602,11.45887 -1.25686,3.65161 -3.01955,5.69674 -4.14473,10.25104 l -0.26427,0.41774 c -0.0908,-1.34222 0.33329,-5.52238 0.0245,-4.66509 a 214.41095,214.41095 0 0 0 -11.17734,27.09969 c -4.98476,16.38822 -10.78775,38.69568 -11.7077,67.71517 -0.22158,2.20041 -0.0245,4.66419 -0.22431,6.64484 -11.80577,13.48037 -19.85003,24.89473 -22.89138,30.81123 -15.26305,23.58521 -32.08173,60.34111 -48.3855,118.48272 a 289.8253,289.8253 0 0 1 25.91641,-45.39683 c -13.55756,30.86118 -26.66288,79.32388 -29.28285,153.95632 a 398.23769,398.23769 0 0 1 12.59767,-45.62476 c -2.34118,49.76586 3.45545,111.46463 34.91692,181.076 18.68036,40.94514 61.68152,124.0959 166.75197,188.98314 l -0.009,0.007 c 0,0 35.74425,26.60839 97.18602,46.55015 4.54068,1.64736 9.14039,3.26929 13.83454,4.84309 -1.47299,-0.59483 -2.89786,-1.22053 -4.28185,-1.86349 a 440.3398,440.3398 0 0 0 126.04929,18.52598 c 159.0873,0.1353 206.00706,-63.75117 206.00706,-63.75117 0,0 -0.16528,0.12442 -0.46587,0.34238 q 3.36737,-3.17031 6.48682,-6.59035 c -25.09998,23.70235 -82.38158,25.27524 -103.79997,23.56522 36.52796,-10.72781 60.56451,-19.80282 107.31899,-37.7049 q 8.20683,-3.04226 16.78417,-6.93816 c 0.61845,-0.27244 1.24233,-0.56759 1.86351,-0.85002 1.13426,-0.52854 2.25762,-1.02801 3.40278,-1.58379 a 317.12569,317.12569 0 0 0 63.80746,-39.94618 c 46.95064,-37.50603 57.16627,-74.06487 62.50611,-98.16953 -0.74468,2.31031 -3.06496,7.69646 -4.69507,11.18461 -12.09183,25.86553 -38.90546,41.73703 -68.02666,55.34908 a 625.69947,625.69947 0 0 0 38.49408,-56.69857 c 9.50545,-9.42918 12.47142,-24.17912 19.56942,-34.09052 z"/><path style="fill:none;stroke:url(#linearGradient968);stroke-width:23.08280754;stroke-miterlimit:4;stroke-dasharray:none" id="path211" d="m 1567.8171,795.053 c 21.08,-23.241 40.01,-49.824 54.349,-79.968 36.9,-77.582 93.952,-206.58 49.018,-341.306 -35.513,-106.483 -84.272,-164.708 -146.181,-221.586 -100.544,-92.366001 -128.625,-133.601001 -128.625,-158.1220008 0,0 -116.089,129.4090008 -65.742,264.3810008 50.347,134.972 153.46,130.024 221.679,270.874 80.275,165.745 -64.949,346.614 -185.044,397.238 7.353,-1.633 266.97,-60.383 280.614,-208.882 -0.309,2.731 -6.159,43.803 -80.068,77.371 z"/><path style="fill:none" id="path213" d="m 512.592,321.373 c 0.393,-8.77 -4.156,-14.66 -76.682,-21.463 -29.839,-2.755 -41.265,-30.334 -44.748,-41.941 -10.61,27.565 -14.991,56.49 -12.636,91.477 1.61,22.92 17.009,47.521 24.37,61.965 0,0 1.636,-2.126 2.391,-2.912 13.861,-14.431 71.936,-36.419 77.392,-39.541 6.014,-3.799 28.903,-20.523 29.913,-47.585 z"/><path style="fill:url(#linear-gradient-3)" id="path215" d="m -34.795086,-2.3810702 c -1.041,-1.818 -1.6,3.754 -2.4,1.96099995 -5.955,-13.81299975 -9.578,-36.19999975 -8.72,-52.02199975 0,0 -12.318,5.614 -22.513,29.06 -1.893,4.215 -3.107,6.54 -4.32,8.865 -0.558,0.678 1.265,-7.7 0.974,-7.244 -1.771,3 -6.355,7.192 -8.346,12.3749998 -1.651,4.239 -3.349,6.515 -4.613,11.772 -0.389,1.429 0.392,-6.323 0.052,-5.379 C -108.39209,42.83193 -112.91809,112.12093 -110.41909,109.19093 c 50.478004,-53.9 108.3250042,-66.683 108.3250042,-66.683 -6.155,-4.534 -19.5280002,-17.625 -32.7000002,-44.8890002 z"/><path style="fill:none;stroke:url(#linearGradient952);stroke-width:8.84840965;stroke-miterlimit:4;stroke-dasharray:none" id="path217" d="m 1553.0501,891.25202 c -69.724,-29.769 -148.992,-71.755 -146,-167.138 4.075,-125.619 117.145,-100.791 117.145,-100.791 -4.267,1.039 -15.675,9.162 -19.718,17.82 -4.273,10.827 -12.069,35.276 11.551,60.9 37.089,40.192 -76.2,95.356 98.663,199.567 4.41,2.4 -40.991,-1.43 -61.639,-10.358 z"/><path style="fill:none" id="path219" d="m 360.074,659.5 c 49.442,17.207 107.04,14.189 141.523,-4.858 23.085,-12.851 52.7,-33.434 70.922,-28.353 -15.777,-6.236 -27.726,-9.15 -42.1,-9.862 -2.448,0 -5.382,-0.052 -8.048,-0.32 a 136.228,136.228 0 0 0 -15.757,0.863 c -8.9,0.818 -18.766,6.433 -27.735,5.532 -0.485,-0.049 8.7,-3.774 7.953,-3.605 -4.752,0.991 -9.915,1.205 -15.37,1.881 -3.467,0.386 -6.449,0.82 -9.891,0.963 -102.982,8.733 -190.017,-55.813 -190.017,-55.813 -7.408,24.95 33.166,74.3 88.521,93.572 z"/><path style="fill:none;stroke:url(#linearGradient960);stroke-width:8.84840965;stroke-miterlimit:4;stroke-dasharray:none;stroke-opacity:1" id="path221" d="m 1290.119,586.91998 c 104.162,-102.27 156.862,-226.585 134.583,-366.019 0,0 8.9,71.5 -24.848,144.628 16.213,-71.393 18.1,-160.114 -24.975,-251.988 -57.493,-122.631001 -152.048,-187.158001 -188.147,-214.078 -54.695,-40.789 -77.368,-82.319 -77.777,-90.889 -16.339,33.477 -65.766,148.199999 -5.31,246.999999 56.64,92.564001 145.865,120.039001 208.328,204.947001 115.075,156.42 -21.854,326.399 -21.854,326.399 z"/><path style="fill:none" id="path223" d="M 833.814,537.551 C 797.412,462.35 751.978,429.55 709,394 c 5,7 6.232,9.473 9,14 37.827,40.316 93.607,138.656 53.11,262.107 C 694.881,902.482 389.967,793.057 358,762.319 370.932,896.808 596.036,961.164 742.6,873.949 826,795 893.468,660.788 833.814,537.551 Z"/></g></svg>