<svg xmlns="http://www.w3.org/2000/svg" xmlns:svg="http://www.w3.org/2000/svg" xmlns:xlink="http://www.w3.org/1999/xlink" id="svg815" width="48" height="48" version="1.1" viewBox="0 0 48 48"><metadata id="metadata821"/><defs id="defs819"><linearGradient id="linearGradient1026"><stop style="stop-color:#000;stop-opacity:1" id="stop1022" offset="0"/><stop style="stop-color:#000;stop-opacity:0" id="stop1024" offset="1"/></linearGradient><linearGradient id="linearGradient1018"><stop id="stop1030" offset="0" style="stop-color:#d300b3;stop-opacity:1"/><stop style="stop-color:#ffce17;stop-opacity:1" id="stop1016" offset="1"/></linearGradient><linearGradient id="linearGradient984"><stop style="stop-color:#ce1269;stop-opacity:1" id="stop980" offset="0"/><stop style="stop-color:#ce1269;stop-opacity:0" id="stop982" offset="1"/></linearGradient><linearGradient id="linearGradient850"><stop style="stop-color:#8d268e;stop-opacity:1" id="stop846" offset="0"/><stop id="stop850" offset=".393" style="stop-color:#7c71ee;stop-opacity:1"/><stop style="stop-color:#00fbff;stop-opacity:1" id="stop848" offset="1"/></linearGradient><linearGradient id="linearGradient4578"><stop id="stop4584" offset="0" style="stop-color:#fbda39;stop-opacity:1"/><stop style="stop-color:#fbda39;stop-opacity:1" id="stop990" offset=".5"/><stop id="stop4586" offset="1" style="stop-color:#fbda39;stop-opacity:1"/></linearGradient><linearGradient id="linearGradient848" x1="24.788" x2="26.45" y1="48.49" y2="7.964" gradientUnits="userSpaceOnUse" xlink:href="#linearGradient850"/></defs><path id="path4549" d="M 5.6830383,16.848161 5.4271232,17.889586 M 32.809848,29.149148 c 0,0 13.947134,-4.896684 5.438113,-21.153732 M 31.658186,3.6350409 c 0,0 -7.544147,-2.92900591 -15.48273,0 m 3.317742,-0.839274 c 0,0 -3.433855,0.1918831 -6.952656,2.5350946 0,0 7.687059,-4.56537971 15.748305,-0.6517448 1.000641,0.6620252 7.072888,2.9252161 9.383296,10.4767203 0,0 2.495142,6.508922 -2.175269,12.106595 0,0 -4.094606,4.230798 -9.660709,2.603574 0,0 -4.478476,-0.390537 -5.694056,-5.532585 0,0 -1.15161,-3.449724 1.471498,-6.508936 m 0,0 c 0,0 -5.630086,0.195276 -5.310186,8.591785 m 0,0 c 0,0 -5.374182,-10.023733 6.909636,-18.0947931 0,0 -10.87629,-2.2781371 -17.7859338,9.5681091 0,0 0.959674,-4.946786 1.5354804,-6.834373 0,0 -7.42147311,5.532586 -4.5424531,19.852217 0,0 2.5591264,8.917222 11.2601625,13.603645 0,0 8.828987,5.532585 20.409046,-0.390525 0,0 5.949974,-2.603574 9.340809,-10.023746 0,0 4.094606,-8.787046 0.895693,-17.118468 0,0 -3.838688,-10.1539214 -12.667675,-13.3432951" style="fill:none;stroke:url(#linearGradient848);stroke-width:3.52313757;stroke-linecap:round;stroke-linejoin:round;stroke-miterlimit:4;stroke-dasharray:none;stroke-opacity:1"/></svg>