<svg xmlns="http://www.w3.org/2000/svg" xmlns:xlink="http://www.w3.org/1999/xlink" style="isolation:isolate" width="64" height="64" viewBox="0 0 48 48"><linearGradient id="_lgradient_12" x1="1.563" x2="-.052" y1=".543" y2=".539" gradientTransform="matrix(39.961,0,0,23.32,1.039,20.68)" gradientUnits="userSpaceOnUse"><stop offset="34.941%" stop-opacity="1" style="stop-color:#b2e56b"/><stop offset="53.849%" stop-opacity="1" style="stop-color:#c2e964"/><stop offset="90.405%" stop-opacity="1" style="stop-color:#ecf451"/><stop offset="100%" stop-opacity="1" style="stop-color:#faf74b"/></linearGradient><path fill="url(#_lgradient_12)" fill-rule="evenodd" d="M 41 20.68 L 41 44 L 1.95 44 C 0.846 44 0.729 43.557 1.689 43.012 L 41 20.68 Z M 37 27.32 L 37 40 L 16.05 40 L 37 27.32 Z"/><linearGradient id="_lgradient_13" x1="1.563" x2="-.052" y1=".543" y2=".539" gradientTransform="matrix(39,0,0,36,8,4)" gradientUnits="userSpaceOnUse"><stop offset="34.941%" stop-opacity="1" style="stop-color:#b2e56b"/><stop offset="53.849%" stop-opacity="1" style="stop-color:#c2e964"/><stop offset="90.405%" stop-opacity="1" style="stop-color:#ecf451"/><stop offset="100%" stop-opacity="1" style="stop-color:#faf74b"/></linearGradient><path fill="url(#_lgradient_13)" d="M 12 31 L 12 31 C 12 32.104 11.104 33 10 33 L 10 33 C 8.896 33 8 32.104 8 31 L 8 31 L 8 13.09 C 8 12.538 8.337 11.795 8.753 11.432 L 16.497 4.658 C 16.913 4.295 17.698 4 18.25 4 L 43 4 C 45.208 4 47 5.792 47 8 L 47 38 L 47 38 C 47 39.104 46.104 40 45 40 L 45 40 C 43.896 40 43 39.104 43 38 L 43 38 L 43 10 C 43 8.896 42.104 8 41 8 L 18.75 8 L 12 13.91 L 12 31 Z"/></svg>