<svg xmlns="http://www.w3.org/2000/svg" xmlns:xlink="http://www.w3.org/1999/xlink" style="isolation:isolate" width="64" height="64" viewBox="0 0 48 48"><linearGradient id="_lgradient_36" x1="0" x2=".988" y1=".5" y2=".344" gradientTransform="matrix(35.17,0,0,22.62,0.58,24.6)" gradientUnits="userSpaceOnUse"><stop offset="100%" stop-opacity="1" style="stop-color:#22d88f"/><stop offset="100%" stop-opacity="1" style="stop-color:#21d691"/></linearGradient><path fill="url(#_lgradient_36)" d="M 31.3 37.45 L 32.34 35.75 L 35.75 37.84 L 34.7 39.55 L 29.98 47.22 L 0.58 41.57 L 4.05 26.55 L 4.5 24.6 L 8.4 25.5 L 7.95 27.45 L 5.42 38.43 L 28.02 42.78 L 31.3 37.45 Z"/><linearGradient id="_lgradient_37" x1="0" x2="1" y1=".5" y2=".5" gradientTransform="matrix(46.38,0,0,29.69,0.9,-0.16)" gradientUnits="userSpaceOnUse"><stop offset="6%" stop-opacity="1" style="stop-color:#2b86d0"/><stop offset="89%" stop-opacity="1" style="stop-color:#21d789"/></linearGradient><path fill="url(#_lgradient_37)" d="M 10.14 25.1 L 12.03 25.74 L 10.76 29.53 L 8.86 28.9 L 2.09 26.61 L 0.9 7.44 L 33.45 -0.16 L 47.28 10.21 L 43.93 22.63 L 43.41 24.56 L 39.55 23.52 L 40.07 21.59 L 42.72 11.79 L 32.55 4.16 L 5.1 10.56 L 5.91 23.68 L 10.14 25.1 Z"/><linearGradient id="_lgradient_38" x1=".417" x2=".68" y1=".019" y2=".964" gradientTransform="matrix(13.74,0,0,22.13,35.67,17.17)" gradientUnits="userSpaceOnUse"><stop offset="28%" stop-opacity="1" style="stop-color:#00cdd7"/><stop offset="94%" stop-opacity="1" style="stop-color:#2086d7"/></linearGradient><path fill="url(#_lgradient_38)" d="M 37.05 21.37 L 35.67 19.92 L 38.58 17.17 L 39.95 18.63 L 49.41 28.64 L 44.09 39.3 L 38.06 37.93 L 36.11 37.49 L 36.99 33.59 L 38.94 34.03 L 41.91 34.7 L 44.59 29.36 L 37.05 21.37 Z"/><linearGradient id="_lgradient_39" x1="0" x2="1" y1=".5" y2=".5" gradientTransform="matrix(29,0,0,29,9.5,9.5)" gradientUnits="userSpaceOnUse"><stop offset="0%" stop-opacity="1" style="stop-color:#00c6ff"/><stop offset="98.696%" stop-opacity="1" style="stop-color:#0072ff"/></linearGradient><path fill="url(#_lgradient_39)" fill-rule="evenodd" d="M 35.978 31.218 L 35.978 31.218 C 35.978 30.523 36.543 29.958 37.239 29.958 L 37.239 29.958 C 37.935 29.958 38.5 30.523 38.5 31.218 L 38.5 31.218 L 38.5 35.348 C 38.5 37.088 37.088 38.5 35.348 38.5 L 12.652 38.5 C 10.912 38.5 9.5 37.088 9.5 35.348 L 9.5 23.37 L 9.5 23.37 C 9.5 22.674 10.065 22.109 10.761 22.109 L 10.761 22.109 C 11.457 22.109 12.022 22.674 12.022 23.37 L 12.022 23.37 L 12.022 34.087 C 12.022 35.131 12.869 35.978 13.913 35.978 L 34.087 35.978 C 35.131 35.978 35.978 35.131 35.978 34.087 L 35.978 31.218 L 35.978 31.218 L 35.978 31.218 Z M 12.022 16.782 L 12.022 16.782 C 12.022 17.477 11.457 18.042 10.761 18.042 L 10.761 18.042 C 10.065 18.042 9.5 17.477 9.5 16.782 L 9.5 16.782 L 9.5 12.652 C 9.5 10.912 10.912 9.5 12.652 9.5 L 35.348 9.5 C 37.088 9.5 38.5 10.912 38.5 12.652 L 38.5 25.147 L 38.5 25.147 C 38.5 25.843 37.935 26.408 37.239 26.408 L 37.239 26.408 C 36.543 26.408 35.978 25.843 35.978 25.147 L 35.978 25.147 L 35.978 13.913 C 35.978 12.869 35.131 12.022 34.087 12.022 L 13.913 12.022 C 12.869 12.022 12.022 12.869 12.022 13.913 L 12.022 16.782 L 12.022 16.782 L 12.022 16.782 Z M 13 30.5 L 23 30.5 L 23 33 L 13 33 L 13 30.5 L 13 30.5 Z M 18.023 22.845 L 16.53 22.845 L 14.679 16.816 L 14.632 16.816 L 14.632 16.816 Q 14.732 18.656 14.732 19.271 L 14.732 19.271 L 14.732 22.845 L 13.276 22.845 L 13.276 15.16 L 15.494 15.16 L 17.313 21.037 L 17.345 21.037 L 19.274 15.16 L 21.492 15.16 L 21.492 22.845 L 19.973 22.845 L 19.973 19.208 L 19.973 19.208 Q 19.973 18.95 19.981 18.614 L 19.981 18.614 L 19.981 18.614 Q 19.989 18.277 20.052 16.826 L 20.052 16.826 L 20.005 16.826 L 18.023 22.845 L 18.023 22.845 Z M 25.057 16.495 L 25.057 18.777 L 25.593 18.777 L 25.593 18.777 Q 26.345 18.777 26.718 18.48 L 26.718 18.48 L 26.718 18.48 Q 27.091 18.183 27.091 17.615 L 27.091 17.615 L 27.091 17.615 Q 27.091 17.042 26.778 16.768 L 26.778 16.768 L 26.778 16.768 Q 26.466 16.495 25.798 16.495 L 25.798 16.495 L 25.057 16.495 L 25.057 16.495 Z M 34.724 20.711 L 34.724 20.711 L 34.724 20.711 Q 34.724 21.752 33.975 22.351 L 33.975 22.351 L 33.975 22.351 Q 33.226 22.951 31.891 22.951 L 31.891 22.951 L 31.891 22.951 Q 30.661 22.951 29.714 22.488 L 29.714 22.488 L 29.714 20.974 L 29.714 20.974 Q 30.492 21.321 31.031 21.463 L 31.031 21.463 L 31.031 21.463 Q 31.57 21.605 32.017 21.605 L 32.017 21.605 L 32.017 21.605 Q 32.553 21.605 32.84 21.4 L 32.84 21.4 L 32.84 21.4 Q 33.126 21.195 33.126 20.79 L 33.126 20.79 L 33.126 20.79 Q 33.126 20.564 33 20.388 L 33 20.388 L 33 20.388 Q 32.874 20.212 32.629 20.049 L 32.629 20.049 L 32.629 20.049 Q 32.385 19.886 31.633 19.528 L 31.633 19.528 L 31.633 19.528 Q 30.929 19.197 30.576 18.892 L 30.576 18.892 L 30.576 18.892 Q 30.224 18.587 30.014 18.183 L 30.014 18.183 L 30.014 18.183 Q 29.804 17.778 29.804 17.236 L 29.804 17.236 L 29.804 17.236 Q 29.804 16.216 30.495 15.633 L 30.495 15.633 L 30.495 15.633 Q 31.186 15.049 32.406 15.049 L 32.406 15.049 L 32.406 15.049 Q 33.005 15.049 33.549 15.191 L 33.549 15.191 L 33.549 15.191 Q 34.093 15.333 34.687 15.591 L 34.687 15.591 L 34.162 16.858 L 34.162 16.858 Q 33.547 16.605 33.144 16.506 L 33.144 16.506 L 33.144 16.506 Q 32.742 16.406 32.353 16.406 L 32.353 16.406 L 32.353 16.406 Q 31.891 16.406 31.644 16.621 L 31.644 16.621 L 31.644 16.621 Q 31.397 16.837 31.397 17.184 L 31.397 17.184 L 31.397 17.184 Q 31.397 17.399 31.496 17.56 L 31.496 17.56 L 31.496 17.56 Q 31.596 17.72 31.814 17.87 L 31.814 17.87 L 31.814 17.87 Q 32.033 18.02 32.847 18.409 L 32.847 18.409 L 32.847 18.409 Q 33.925 18.924 34.325 19.442 L 34.325 19.442 L 34.325 19.442 Q 34.724 19.959 34.724 20.711 L 34.724 20.711 Z M 28.737 17.557 L 28.737 17.557 L 28.737 17.557 Q 28.737 18.798 27.961 19.455 L 27.961 19.455 L 27.961 19.455 Q 27.186 20.112 25.756 20.112 L 25.756 20.112 L 25.057 20.112 L 25.057 22.845 L 23.427 22.845 L 23.427 15.16 L 25.882 15.16 L 25.882 15.16 Q 27.28 15.16 28.008 15.762 L 28.008 15.762 L 28.008 15.762 Q 28.737 16.364 28.737 17.557 L 28.737 17.557 Z"/></svg>