<svg xmlns="http://www.w3.org/2000/svg" xmlns:xlink="http://www.w3.org/1999/xlink" style="isolation:isolate" width="64" height="64" viewBox="0 0 48 48"><linearGradient id="_lgradient_0" x1="0" x2="1" y1=".5" y2=".5" gradientTransform="matrix(46,0,0,46,1,1)" gradientUnits="userSpaceOnUse"><stop offset="0%" stop-opacity="1" style="stop-color:#d300dc"/><stop offset="100%" stop-opacity="1" style="stop-color:#8700ff"/></linearGradient><path fill="url(#_lgradient_0)" fill-rule="evenodd" d="M 5 12.55 L 5 12.55 C 5 13.654 4.104 14.55 3 14.55 L 3 14.55 C 1.896 14.55 1 13.654 1 12.55 L 1 12.55 L 1 6 C 1 3.24 3.24 1 6 1 L 42 1 C 44.76 1 47 3.24 47 6 L 47 25 L 47 25 C 47 26.104 46.104 27 45 27 L 45 27 C 43.896 27 43 26.104 43 25 L 43 25 L 43 8 C 43 6.344 41.656 5 40 5 L 8 5 C 6.344 5 5 6.344 5 8 L 5 12.55 Z M 43 35.45 L 43 35.45 C 43 34.346 43.896 33.45 45 33.45 L 45 33.45 C 46.104 33.45 47 34.346 47 35.45 L 47 35.45 L 47 42 C 47 44.76 44.76 47 42 47 L 6 47 C 3.24 47 1 44.76 1 42 L 1 22.18 L 1 22.18 C 1 21.076 1.896 20.18 3 20.18 L 3 20.18 C 4.104 20.18 5 21.076 5 22.18 L 5 22.18 L 5 40 C 5 41.656 6.344 43 8 43 L 40 43 C 41.656 43 43 41.656 43 40 L 43 35.45 Z"/><linearGradient id="_lgradient_1" x1="0" x2="1" y1=".5" y2=".5"><stop offset="0%" stop-opacity="1" style="stop-color:#d300dc"/><stop offset="100%" stop-opacity="1" style="stop-color:#8700ff"/></linearGradient><path fill="none" stroke="url(#_lgradient_1)" stroke-linecap="round" stroke-linejoin="bevel" stroke-miterlimit="4" stroke-width="3" d="M 8.521 25.479 C 8.521 25.479 14.521 26.157 14.521 22.479 C 14.521 18.801 8.521 19.479 8.521 19.479 M 8.521 31.479 L 8.521 19.479" vector-effect="non-scaling-stroke"/><linearGradient id="_lgradient_2" x1="-.613" x2="2.469" y1=".481" y2=".523"><stop offset="0%" stop-opacity="1" style="stop-color:#ffe031"/><stop offset="98.696%" stop-opacity="1" style="stop-color:#fc5252"/></linearGradient><path fill="none" stroke="url(#_lgradient_2)" stroke-linecap="round" stroke-linejoin="round" stroke-miterlimit="4" stroke-width="3" d="M 28.512 31.479 L 28.512 19.479 M 19.513 19.479 L 24.012 25.479 L 28.512 19.479 M 19.513 31.479 L 19.513 19.479" vector-effect="non-scaling-stroke"/><linearGradient id="_lgradient_3" x1="-2.577" x2="2.025" y1=".523" y2=".449"><stop offset="0%" stop-opacity="1" style="stop-color:#ffe031"/><stop offset="98.696%" stop-opacity="1" style="stop-color:#fc5252"/></linearGradient><path fill="none" stroke="url(#_lgradient_3)" stroke-linecap="round" stroke-linejoin="bevel" stroke-miterlimit="4" stroke-width="3" d="M 33.521 26.479 L 39.521 26.479 M 33.521 31.479 L 33.521 22.525 M 39.521 31.479 L 39.521 22.525 M 33.521 22.525 C 33.521 22.525 33.537 19.479 36.521 19.479 C 39.506 19.479 39.521 22.525 39.521 22.525" vector-effect="non-scaling-stroke"/></svg>