<svg xmlns="http://www.w3.org/2000/svg" xmlns:xlink="http://www.w3.org/1999/xlink" style="isolation:isolate" width="64" height="64" viewBox="0 0 48 48"><linearGradient id="_lgradient_5" x1=".072" x2="1.163" y1="1.004" y2=".088"><stop offset="0%" stop-opacity="1" style="stop-color:#8a2387"/><stop offset="48.261%" stop-opacity="1" style="stop-color:#e94057"/><stop offset="98.261%" stop-opacity="1" style="stop-color:#f7797d"/></linearGradient><path fill="none" stroke="url(#_lgradient_5)" stroke-linecap="square" stroke-linejoin="miter" stroke-miterlimit="3" stroke-width="4" d="M 34.125 42 L 38 42 L 38 40 L 43 40 L 43 35 L 45 35 L 45 14 L 43 14 L 43 9 L 38 9 L 38 6 L 34.125 6" vector-effect="non-scaling-stroke"/><linearGradient id="_lgradient_6" x1="0" x2="1" y1=".5" y2=".5"><stop offset="0%" stop-opacity="1" style="stop-color:#5433ff"/><stop offset="51.739%" stop-opacity="1" style="stop-color:#20bdff"/><stop offset="98.261%" stop-opacity="1" style="stop-color:#a5fecb"/></linearGradient><path fill="none" stroke="url(#_lgradient_6)" stroke-linecap="square" stroke-linejoin="miter" stroke-miterlimit="3" stroke-width="4" d="M 14 42 L 10.125 42 L 10.125 40 L 5.125 40 L 5.125 35 L 3.125 35 L 3.125 14 L 5.125 14 L 5.125 9 L 10.125 9 L 10.125 6 L 14 6" vector-effect="non-scaling-stroke"/><linearGradient id="_lgradient_7" x1=".4" x2=".365" y1=".202" y2="1.119" gradientTransform="matrix(11.13,0,0,4,18.5,4)" gradientUnits="userSpaceOnUse"><stop offset="0%" stop-opacity="1" style="stop-color:#43e97b"/><stop offset="97.826%" stop-opacity="1" style="stop-color:#38f9d7"/></linearGradient><path fill="url(#_lgradient_7)" d="M 27.63 4 L 29.63 4 L 29.63 8 L 27.63 8 L 20.5 8 L 18.5 8 L 18.5 4 L 20.5 4 L 27.63 4 Z"/><linearGradient id="_lgradient_8" x1=".4" x2=".365" y1=".202" y2="1.119" gradientTransform="matrix(11.13,0,0,4,18.5,40)" gradientUnits="userSpaceOnUse"><stop offset="0%" stop-opacity="1" style="stop-color:#43e97b"/><stop offset="97.826%" stop-opacity="1" style="stop-color:#38f9d7"/></linearGradient><path fill="url(#_lgradient_8)" d="M 27.63 40 L 29.63 40 L 29.63 44 L 27.63 44 L 20.5 44 L 18.5 44 L 18.5 40 L 20.5 40 L 27.63 40 Z"/><linearGradient id="_lgradient_9" x1="0" x2="1" y1=".5" y2=".5"><stop offset="0%" stop-opacity="1" style="stop-color:#ffe031"/><stop offset="100%" stop-opacity="1" style="stop-color:#fa0075"/></linearGradient><path fill="none" stroke="url(#_lgradient_9)" stroke-linecap="butt" stroke-linejoin="miter" stroke-miterlimit="4" stroke-width="2" d="M 14.875 11.625 L 14.875 14.375 L 12.125 14.375 L 12.125 22.625 L 14.875 22.625 L 14.875 25.375 L 23.125 25.375 L 23.125 22.625 L 25.875 22.625 L 25.875 14.375 L 23.125 14.375 L 23.125 11.625 L 14.875 11.625 Z M 28.625 30.875 L 28.625 36.375 L 34.125 36.375 L 34.125 30.875 L 28.625 30.875 Z" vector-effect="non-scaling-stroke"/></svg>