<svg xmlns="http://www.w3.org/2000/svg" xmlns:xlink="http://www.w3.org/1999/xlink" style="isolation:isolate" width="64" height="64" viewBox="0 0 48 48"><linearGradient id="_lgradient_22" x1="-.014" x2="1.016" y1=".01" y2="1.072" gradientTransform="matrix(10.97,0,0,18.678,37.03,11.28)" gradientUnits="userSpaceOnUse"><stop offset="0%" stop-opacity="1" style="stop-color:#f9d423"/><stop offset="51.562%" stop-opacity="1" style="stop-color:#ff4e50"/><stop offset="99.13%" stop-opacity="1" style="stop-color:#8a2387"/></linearGradient><path fill="url(#_lgradient_22)" d="M 37.03 15.75 L 37.19 14.78 L 37.22 11.28 L 38.97 12.25 L 48 18.417 L 44.66 26.11 L 43.13 29.958 L 40.23 25.55 L 41.34 23.89 L 43.13 19.7 L 37.03 15.75 Z"/><linearGradient id="_lgradient_23" x1=".063" x2=".73" y1=".995" y2="-.389" gradientTransform="matrix(23.3,0,0,33.268,24.27,15.062)" gradientUnits="userSpaceOnUse"><stop offset="0%" stop-opacity="1" style="stop-color:#16b5e4"/><stop offset="93.218%" stop-opacity="1" style="stop-color:#ea28f9"/><stop offset="98.261%" stop-opacity="1" style="stop-color:#f520fa"/></linearGradient><path fill="url(#_lgradient_23)" d="M 37.19 22.85 L 37.19 20.546 L 38 15.062 L 40.81 21.15 L 47.57 39.77 L 34.04 48.33 L 26.01 44.74 L 24.27 43.74 L 26.26 40.27 L 27.99 41.26 L 33.96 43.67 L 42.43 38.23 L 37.19 22.85 Z"/><linearGradient id="_lgradient_24" x1=".746" x2=".701" y1="1.044" y2=".097" gradientTransform="matrix(32,0,0,47.73,0.82,-0.36)" gradientUnits="userSpaceOnUse"><stop offset="0%" stop-opacity="1" style="stop-color:#ffe031"/><stop offset="100%" stop-opacity="1" style="stop-color:#fa0075"/></linearGradient><path fill="url(#_lgradient_24)" d="M 28 37 L 29 37 L 32.82 38.15 L 31.34 39.49 L 20.36 47.37 L 5.2 42.37 L 0.82 10.08 L 14.9 -0.36 L 22.99 4.26 L 24.73 5.26 L 22.74 8.73 L 21.01 7.74 L 15.1 4.36 L 5.18 11.92 L 8.8 39.63 L 19.64 42.63 L 28 37 Z"/><linearGradient id="_lgradient_25" x1="0" x2="1" y1=".5" y2=".5" gradientTransform="matrix(17.59,0,0,11.6,19.17,-0.19)" gradientUnits="userSpaceOnUse"><stop offset="0%" stop-opacity="1" style="stop-color:#00c6ff"/><stop offset="98.696%" stop-opacity="1" style="stop-color:#0072ff"/></linearGradient><path fill="url(#_lgradient_25)" d="M 23.41 11.41 L 21.455 11.06 L 19.17 10 L 20.59 8.59 L 29.36 -0.19 L 35.7 8.94 L 36.76 10.64 L 33.36 11.06 L 32.3 11.06 L 28.64 6.19 L 23.41 11.41 Z"/><linearGradient id="_lgradient_26" x1=".34" x2="1.009" y1=".037" y2="1.013" gradientTransform="matrix(29,0,0,29,9.5,9.5)" gradientUnits="userSpaceOnUse"><stop offset="0%" stop-opacity="1" style="stop-color:#9c33c4"/><stop offset="51.304%" stop-opacity="1" style="stop-color:#ff1950"/><stop offset="98.696%" stop-opacity="1" style="stop-color:#ff8724"/></linearGradient><path fill="url(#_lgradient_26)" fill-rule="evenodd" d="M 35.978 31.218 L 35.978 31.218 C 35.978 30.523 36.543 29.958 37.239 29.958 L 37.239 29.958 C 37.935 29.958 38.5 30.523 38.5 31.218 L 38.5 31.218 L 38.5 35.348 C 38.5 37.088 37.088 38.5 35.348 38.5 L 12.652 38.5 C 10.912 38.5 9.5 37.088 9.5 35.348 L 9.5 23.37 L 9.5 23.37 C 9.5 22.674 10.065 22.109 10.761 22.109 L 10.761 22.109 C 11.457 22.109 12.022 22.674 12.022 23.37 L 12.022 23.37 L 12.022 34.087 C 12.022 35.131 12.869 35.978 13.913 35.978 L 34.087 35.978 C 35.131 35.978 35.978 35.131 35.978 34.087 L 35.978 31.218 L 35.978 31.218 L 35.978 31.218 Z M 12.022 16.782 L 12.022 16.782 C 12.022 17.477 11.457 18.042 10.761 18.042 L 10.761 18.042 C 10.065 18.042 9.5 17.477 9.5 16.782 L 9.5 16.782 L 9.5 12.652 C 9.5 10.912 10.912 9.5 12.652 9.5 L 35.348 9.5 C 37.088 9.5 38.5 10.912 38.5 12.652 L 38.5 25.147 L 38.5 25.147 C 38.5 25.843 37.935 26.408 37.239 26.408 L 37.239 26.408 C 36.543 26.408 35.978 25.843 35.978 25.147 L 35.978 25.147 L 35.978 13.913 C 35.978 12.869 35.131 12.022 34.087 12.022 L 13.913 12.022 C 12.869 12.022 12.022 12.869 12.022 13.913 L 12.022 16.782 L 12.022 16.782 L 12.022 16.782 Z M 14 30.5 L 23 30.5 L 23 33 L 14 33 L 14 30.5 L 14 30.5 Z M 16.334 16.973 L 16.334 19.945 L 17.086 19.945 L 17.086 19.945 Q 18.192 19.945 18.719 19.576 L 18.719 19.576 L 18.719 19.576 Q 19.245 19.207 19.245 18.417 L 19.245 18.417 L 19.245 18.417 Q 19.245 17.635 18.707 17.304 L 18.707 17.304 L 18.707 17.304 Q 18.169 16.973 17.041 16.973 L 17.041 16.973 L 16.334 16.973 L 16.334 16.973 Z M 30.877 20.517 L 30.877 20.517 L 30.877 20.517 Q 30.877 16.973 27.747 16.973 L 27.747 16.973 L 26.506 16.973 L 26.506 24.136 L 27.507 24.136 L 27.507 24.136 Q 30.877 24.136 30.877 20.517 L 30.877 20.517 Z M 17.575 21.841 L 16.334 21.841 L 16.334 26.062 L 14.001 26.062 L 14.001 15.062 L 17.206 15.062 L 17.206 15.062 Q 19.448 15.062 20.524 15.878 L 20.524 15.878 L 20.524 15.878 Q 21.6 16.694 21.6 18.357 L 21.6 18.357 L 21.6 18.357 Q 21.6 19.328 21.066 20.084 L 21.066 20.084 L 21.066 20.084 Q 20.532 20.84 19.554 21.269 L 19.554 21.269 L 19.554 21.269 Q 22.037 24.978 22.789 26.062 L 22.789 26.062 L 20.201 26.062 L 17.575 21.841 L 17.575 21.841 Z M 33.3 20.456 L 33.3 20.456 L 33.3 20.456 Q 33.3 23.173 31.754 24.617 L 31.754 24.617 L 31.754 24.617 Q 30.208 26.062 27.288 26.062 L 27.288 26.062 L 24.173 26.062 L 24.173 15.062 L 27.627 15.062 L 27.627 15.062 Q 30.321 15.062 31.81 16.484 L 31.81 16.484 L 31.81 16.484 Q 33.3 17.906 33.3 20.456 L 33.3 20.456 Z"/></svg>