<svg xmlns="http://www.w3.org/2000/svg" xmlns:svg="http://www.w3.org/2000/svg" xmlns:xlink="http://www.w3.org/1999/xlink" id="svg5" version="1.1" viewBox="0 0 16 16"><metadata id="metadata9"/><defs id="defs3051"><linearGradient id="linearGradient823"><stop style="stop-color:#4568dc;stop-opacity:1" id="stop819" offset="0"/><stop style="stop-color:#b06ab3;stop-opacity:1" id="stop821" offset="1"/></linearGradient><style id="current-color-scheme" type="text/css">.ColorScheme-Text{color:#4d4d4d}</style><linearGradient id="linearGradient825" x1="2" x2="14" y1="8" y2="8" gradientUnits="userSpaceOnUse" xlink:href="#linearGradient823"/></defs><path style="fill:url(#linearGradient825);fill-opacity:1;stroke:none" id="rect4099" d="M 6 2 L 6 3 L 6 6 L 7 6 L 7 3 L 9 3 L 9 6 L 10 6 L 10 3 L 10 2 L 6 2 z M 3.7070312 6 L 3 6.7070312 L 6.2929688 10 L 8 11.707031 L 9.7070312 10 L 13 6.7070312 L 12.292969 6 L 9 9.2929688 L 8 10.292969 L 7 9.2929688 L 3.7070312 6 z M 2 12 L 2 14 L 3 14 L 14 14 L 14 13 L 14 12 L 13 12 L 13 13 L 3 13 L 3 12 L 2 12 z" class="ColorScheme-Text"/></svg>