<svg xmlns="http://www.w3.org/2000/svg" xmlns:svg="http://www.w3.org/2000/svg" xmlns:xlink="http://www.w3.org/1999/xlink" id="svg6" version="1.1" viewBox="0 0 16 16"><metadata id="metadata10"/><defs id="defs3051"><linearGradient id="linearGradient821"><stop style="stop-color:#f69284;stop-opacity:1" id="stop817" offset="0"/><stop style="stop-color:#8178fb;stop-opacity:1" id="stop819" offset="1"/></linearGradient><style id="current-color-scheme" type="text/css">.ColorScheme-Text{color:#4d4d4d}</style><linearGradient id="linearGradient823" x1="2" x2="14" y1="8" y2="8" gradientUnits="userSpaceOnUse" xlink:href="#linearGradient821"/></defs><path style="fill:url(#linearGradient823);fill-opacity:1;stroke:none" id="path4" d="M 2 2 L 2 3 L 8 3 L 8 2 L 2 2 z M 2 4 L 2 5 L 14 5 L 14 4 L 2 4 z M 2 6 L 2 7 L 12 7 L 12 6 L 2 6 z M 2 9 L 2 10 L 8 10 L 8 9 L 2 9 z M 2 11 L 2 12 L 14 12 L 14 11 L 2 11 z M 2 13 L 2 14 L 11 14 L 11 13 L 2 13 z" class="ColorScheme-Text"/></svg>